<svg width="68" height="38" viewBox="0 0 68 38" fill="none" xmlns="http://www.w3.org/2000/svg">
<rect x="32" y="12" width="30" height="10" rx="2" fill="#62ECBC"/>
<g filter="url(#filter0_d_537_284)">
<rect x="32" y="2" width="10" height="30" rx="2" fill="white"/>
</g>
<g filter="url(#filter1_d_537_284)">
<rect x="52" y="2" width="10" height="30" rx="2" fill="white"/>
</g>
<path d="M2 7.7893C2 5.90048 2 4.95608 2.39522 4.42471C2.73971 3.96155 3.26751 3.66981 3.84295 3.62449C4.50313 3.57248 5.30284 4.07486 6.90224 5.07961L26.5022 17.3924C27.049 17.7359 27.3224 17.9077 27.5207 18.1398C27.6962 18.3453 27.8283 18.5842 27.9089 18.8421C28 19.1335 28 19.4564 28 20.1021V26.2107C28 28.0995 28 29.0439 27.6048 29.5753C27.2603 30.0385 26.7325 30.3302 26.1571 30.3755C25.4969 30.4275 24.6972 29.9251 23.0978 28.9204L3.49776 16.6076C2.95097 16.2641 2.67757 16.0923 2.47928 15.8602C2.30377 15.6547 2.17171 15.4158 2.09109 15.1579C2 14.8665 2 14.5436 2 13.8979V7.7893Z" fill="#62ECBC"/>
<g filter="url(#filter2_d_537_284)">
<path d="M11.5554 32C7.60018 32 5.62256 32 5.03272 31.3886C4.52472 30.8619 4.34484 30.1 4.5637 29.4018C4.81782 28.5911 6.58666 27.7067 10.1243 25.9378L23.3689 19.3155C24.9024 18.5488 25.6691 18.1655 26.2923 18.2575C26.8365 18.338 27.3236 18.639 27.6389 19.0898C28 19.6061 28 20.4633 28 22.1777V28.8C28 29.9201 28 30.4802 27.782 30.908C27.5903 31.2843 27.2843 31.5903 26.908 31.782C26.4802 32 25.9201 32 24.8 32H11.5554Z" fill="white"/>
</g>
<g filter="url(#filter3_d_537_284)">
<path d="M2 5.2C2 4.07989 2 3.51984 2.21799 3.09202C2.40973 2.71569 2.71569 2.40973 3.09202 2.21799C3.51984 2 4.0799 2 5.2 2H18.4446C22.3998 2 24.3774 2 24.9673 2.61145C25.4753 3.13806 25.6552 3.90004 25.4363 4.59823C25.1822 5.40891 23.4133 6.29333 19.8757 8.06217L6.63108 14.6845C5.09765 15.4512 4.33093 15.8345 3.70768 15.7425C3.16346 15.662 2.67639 15.361 2.36109 14.9102C2 14.3939 2 13.5367 2 11.8223V5.2Z" fill="white"/>
</g>
<defs>
<filter id="filter0_d_537_284" x="30" y="0" width="18" height="38" filterUnits="userSpaceOnUse" color-interpolation-filters="sRGB">
<feFlood flood-opacity="0" result="BackgroundImageFix"/>
<feColorMatrix in="SourceAlpha" type="matrix" values="0 0 0 0 0 0 0 0 0 0 0 0 0 0 0 0 0 0 127 0" result="hardAlpha"/>
<feOffset dx="2" dy="2"/>
<feGaussianBlur stdDeviation="2"/>
<feColorMatrix type="matrix" values="0 0 0 0 0 0 0 0 0 0 0 0 0 0 0 0 0 0 0.25 0"/>
<feBlend mode="normal" in2="BackgroundImageFix" result="effect1_dropShadow_537_284"/>
<feBlend mode="normal" in="SourceGraphic" in2="effect1_dropShadow_537_284" result="shape"/>
</filter>
<filter id="filter1_d_537_284" x="50" y="0" width="18" height="38" filterUnits="userSpaceOnUse" color-interpolation-filters="sRGB">
<feFlood flood-opacity="0" result="BackgroundImageFix"/>
<feColorMatrix in="SourceAlpha" type="matrix" values="0 0 0 0 0 0 0 0 0 0 0 0 0 0 0 0 0 0 127 0" result="hardAlpha"/>
<feOffset dx="2" dy="2"/>
<feGaussianBlur stdDeviation="2"/>
<feColorMatrix type="matrix" values="0 0 0 0 0 0 0 0 0 0 0 0 0 0 0 0 0 0 0.25 0"/>
<feBlend mode="normal" in2="BackgroundImageFix" result="effect1_dropShadow_537_284"/>
<feBlend mode="normal" in="SourceGraphic" in2="effect1_dropShadow_537_284" result="shape"/>
</filter>
<filter id="filter2_d_537_284" x="2.47211" y="16.2441" width="31.5279" height="21.7559" filterUnits="userSpaceOnUse" color-interpolation-filters="sRGB">
<feFlood flood-opacity="0" result="BackgroundImageFix"/>
<feColorMatrix in="SourceAlpha" type="matrix" values="0 0 0 0 0 0 0 0 0 0 0 0 0 0 0 0 0 0 127 0" result="hardAlpha"/>
<feOffset dx="2" dy="2"/>
<feGaussianBlur stdDeviation="2"/>
<feColorMatrix type="matrix" values="0 0 0 0 0 0 0 0 0 0 0 0 0 0 0 0 0 0 0.25 0"/>
<feBlend mode="normal" in2="BackgroundImageFix" result="effect1_dropShadow_537_284"/>
<feBlend mode="normal" in="SourceGraphic" in2="effect1_dropShadow_537_284" result="shape"/>
</filter>
<filter id="filter3_d_537_284" x="0" y="0" width="31.5279" height="21.7559" filterUnits="userSpaceOnUse" color-interpolation-filters="sRGB">
<feFlood flood-opacity="0" result="BackgroundImageFix"/>
<feColorMatrix in="SourceAlpha" type="matrix" values="0 0 0 0 0 0 0 0 0 0 0 0 0 0 0 0 0 0 127 0" result="hardAlpha"/>
<feOffset dx="2" dy="2"/>
<feGaussianBlur stdDeviation="2"/>
<feColorMatrix type="matrix" values="0 0 0 0 0 0 0 0 0 0 0 0 0 0 0 0 0 0 0.25 0"/>
<feBlend mode="normal" in2="BackgroundImageFix" result="effect1_dropShadow_537_284"/>
<feBlend mode="normal" in="SourceGraphic" in2="effect1_dropShadow_537_284" result="shape"/>
</filter>
</defs>
</svg>
